<svg width="968" height="328" viewBox="0 0 968 328" fill="none" xmlns="http://www.w3.org/2000/svg">
<g filter="url(#filter0_d_362_667)">
<path fill-rule="evenodd" clip-rule="evenodd" d="M94.6086 52.786C95.2151 52.4611 95.8557 52.195 96.521 51.9877C95.8681 52.195 95.2151 52.4611 94.6086 52.786Z" fill="#16A34A"/>
<path fill-rule="evenodd" clip-rule="evenodd" d="M103.328 51.9856C104.009 52.1929 104.649 52.459 105.256 52.7839C104.634 52.459 103.997 52.1929 103.328 51.9856Z" fill="#16A34A"/>
<path fill-rule="evenodd" clip-rule="evenodd" d="M210.183 189.153C211.028 189.998 211.963 190.679 212.956 191.196C211.932 190.679 210.969 189.983 210.109 189.122C209.961 188.974 209.828 188.825 209.71 188.677L210.183 189.15V189.153Z" fill="#16A34A"/>
<path fill-rule="evenodd" clip-rule="evenodd" d="M347.579 63.5935V63.2964C347.579 63.1324 347.579 62.9715 347.564 62.8075C347.595 62.9715 347.595 63.1479 347.595 63.3119C347.595 63.4016 347.595 63.5037 347.579 63.5935Z" fill="#16A34A"/>
<path fill-rule="evenodd" clip-rule="evenodd" d="M143.036 105.941C138.555 110.397 131.317 110.397 126.84 105.941L111.368 90.4974V265.091C111.368 271.398 106.25 276.522 99.9309 276.522C93.6122 276.522 88.4817 271.401 88.4817 265.091V62.8987C88.4817 62.7347 88.4817 62.5583 88.4972 62.3943C88.4817 62.3355 88.4972 62.2612 88.5126 62.2024C88.5126 62.0384 88.5281 61.893 88.5436 61.729C88.5436 61.5371 88.5745 61.3577 88.6178 61.1658C88.6612 60.81 88.7354 60.4696 88.8252 60.1292C88.8252 60.0859 88.8406 60.0395 88.8561 59.9807C88.9458 59.6403 89.0634 59.2999 89.181 58.975C89.2708 58.7089 89.3729 58.4428 89.509 58.189C89.7628 57.6104 90.0722 57.0503 90.4435 56.5026C90.623 56.221 90.8303 55.9549 91.05 55.6888C91.0655 55.6578 91.081 55.6455 91.0933 55.63C91.3316 55.3484 91.5668 55.0823 91.836 54.8162C92.1021 54.5655 92.3713 54.3118 92.6529 54.0766C92.6684 54.0611 92.6838 54.0457 92.7117 54.0333C92.9778 53.826 93.247 53.6186 93.5286 53.4268L93.7359 53.2937C94.0175 53.1174 94.3146 52.9379 94.6116 52.7894C95.2181 52.4644 95.8711 52.1983 96.524 51.991L96.688 51.9477C97.0005 51.8456 97.3099 51.7713 97.6225 51.7094L97.9041 51.6506C98.1856 51.6073 98.4827 51.5609 98.7643 51.533H98.8231C99.1789 51.4897 99.5503 51.4742 99.9061 51.4742H99.9371C100.293 51.4742 100.664 51.4897 101.02 51.533C101.333 51.564 101.642 51.5918 101.955 51.6661C102.044 51.6661 102.146 51.697 102.236 51.7094C102.549 51.7682 102.874 51.8579 103.186 51.9477C103.245 51.9632 103.291 51.9786 103.335 51.991C104.003 52.1983 104.641 52.4644 105.262 52.7894C105.544 52.9379 105.826 53.0988 106.107 53.2783C106.182 53.3216 106.256 53.3804 106.33 53.4268C106.568 53.5908 106.791 53.7517 107.011 53.9312C107.101 53.99 107.19 54.0642 107.277 54.1385C107.531 54.3613 107.781 54.5841 108.02 54.8193L108.406 55.2184L143.042 89.7764C147.507 94.2478 147.507 101.473 143.042 105.944L143.036 105.941Z" fill="#16A34A"/>
<path fill-rule="evenodd" clip-rule="evenodd" d="M88.4816 62.8984C88.4816 62.7344 88.4816 62.558 88.4971 62.394C88.4661 62.6602 88.4661 62.9108 88.4816 63.18V62.8984Z" fill="#16A34A"/>
<path fill-rule="evenodd" clip-rule="evenodd" d="M347.577 63.0759V265.086C347.577 271.411 342.462 276.526 336.137 276.526C329.812 276.526 324.678 271.411 324.678 265.086V90.9006L303.16 112.382L250.58 164.887L227.218 188.212L226.305 189.125C223.774 191.635 220.392 192.733 217.118 192.418C216.412 192.362 215.722 192.232 215.017 192.028C214.683 191.916 214.33 191.805 213.974 191.675C213.621 191.527 213.306 191.378 212.95 191.192C211.963 190.672 211.034 190.001 210.177 189.147L209.713 188.683L175.174 154.199C170.708 149.734 170.708 142.499 175.174 138.037C177.405 135.806 180.344 134.689 183.284 134.689C186.224 134.689 189.142 135.806 191.376 138.037L218.232 164.859L234.394 148.716L286.992 96.2291L327.655 55.6154C327.785 55.4854 327.896 55.3555 328.026 55.2255C328.583 54.6685 329.181 54.1827 329.83 53.7557C330.146 53.5515 330.48 53.3658 330.799 53.1801C331.077 53.0316 331.374 52.9016 331.672 52.7717C331.727 52.7345 331.764 52.7345 331.82 52.716C332.507 52.456 333.216 52.2333 333.94 52.0847C335.391 51.8062 336.879 51.8062 338.331 52.0847C339.036 52.2333 339.745 52.456 340.45 52.716C340.487 52.7345 340.525 52.7345 340.599 52.7717C340.896 52.9016 341.174 53.0316 341.453 53.1801C341.768 53.3658 342.103 53.5515 342.421 53.7557C342.7 53.9413 342.96 54.127 343.22 54.3312C343.257 54.3498 343.313 54.3869 343.35 54.4426H343.368C343.517 54.554 343.665 54.684 343.795 54.8325C343.944 54.9439 344.074 55.0739 344.222 55.2224C344.482 55.4823 344.724 55.7608 344.968 56.0208C344.987 56.0393 344.987 56.0765 345.005 56.0765C345.228 56.355 345.432 56.6149 345.618 56.8934C345.878 57.2833 346.101 57.6732 346.305 58.0847C346.435 58.2889 346.528 58.4932 346.602 58.6974C346.639 58.7531 346.658 58.7902 346.676 58.8459C346.75 58.9945 346.806 59.143 346.843 59.3101C346.936 59.4958 346.992 59.7 347.048 59.9042C347.103 60.0342 347.14 60.1641 347.177 60.2941C347.196 60.4055 347.233 60.5169 347.252 60.6283C347.326 60.9254 347.4 61.2224 347.437 61.5597C347.475 61.7268 347.493 61.931 347.512 62.1167C347.53 62.2652 347.549 62.4137 347.549 62.5623V62.8036C347.567 62.8965 347.567 62.9707 347.567 63.0636L347.577 63.0759Z" fill="#16A34A"/>
<path fill-rule="evenodd" clip-rule="evenodd" d="M227.212 188.218C226.961 188.543 226.676 188.856 226.382 189.15C223.845 191.681 220.419 192.776 217.112 192.42C220.389 192.73 223.786 191.634 226.308 189.119L227.212 188.215V188.218Z" fill="#16A34A"/>
<path fill-rule="evenodd" clip-rule="evenodd" d="M328.029 55.2261C328.565 54.6784 329.171 54.1895 329.824 53.7594C329.187 54.174 328.592 54.663 328.029 55.2261Z" fill="#16A34A"/>
<path fill-rule="evenodd" clip-rule="evenodd" d="M331.826 52.7132C332.495 52.4316 333.206 52.2242 333.946 52.0912C333.219 52.2242 332.507 52.447 331.826 52.7132Z" fill="#16A34A"/>
<path fill-rule="evenodd" clip-rule="evenodd" d="M336.131 51.8666C336.873 51.8666 337.613 51.9408 338.325 52.0894C336.886 51.8078 335.388 51.8078 333.949 52.0894C334.661 51.9408 335.388 51.8666 336.131 51.8666Z" fill="#16A34A"/>
<path fill-rule="evenodd" clip-rule="evenodd" d="M338.324 52.0912C339.051 52.2242 339.763 52.4316 340.444 52.7132C339.748 52.447 339.036 52.2242 338.324 52.0912Z" fill="#16A34A"/>
<path fill-rule="evenodd" clip-rule="evenodd" d="M344.229 55.2146V55.23C343.665 54.6669 343.071 54.178 342.434 53.7633C343.087 54.178 343.681 54.6669 344.229 55.2146Z" fill="#16A34A"/>
<path fill-rule="evenodd" clip-rule="evenodd" d="M287.044 147.356C283.959 150.441 282.883 155.021 284.303 159.145C290.325 176.616 289.73 197.157 279.556 217.784C273.754 229.539 264.23 239.116 252.474 244.94C186.539 277.601 121.421 212.725 153.897 146.882C159.661 135.201 169.149 125.698 180.812 119.856C201.07 109.704 221.311 108.84 238.676 114.435C242.745 115.747 247.208 114.651 250.231 111.628C256.286 105.573 253.777 95.2683 245.623 92.6504C223.839 85.6541 198.595 86.3534 173.128 97.948C155.181 106.114 140.634 120.491 132.394 138.364C93.2779 223.214 175.619 305.5 260.6 266.588C278.566 258.367 293.001 243.842 301.204 225.891C313.18 199.753 313.582 173.841 305.948 151.663C303.2 143.686 293.007 141.387 287.041 147.353L287.044 147.356Z" fill="#F5F5F5"/>
</g>
<g filter="url(#filter1_d_362_667)">
<rect x="367.595" y="136.796" width="511.934" height="14.2204" rx="7.11019" fill="#F5F5F5"/>
<path d="M481.604 170.89V275.336H457.081V212.698L434.566 275.336H414.776L392.118 212.55V275.336H367.595V170.89H396.563L424.814 243.199L452.779 170.89H481.604Z" fill="#16A34A"/>
<path d="M494.362 233.677C494.362 225.147 495.892 217.658 498.952 211.211C502.106 204.763 506.361 199.804 511.715 196.332C517.069 192.861 523.044 191.125 529.641 191.125C535.281 191.125 540.205 192.315 544.412 194.696C548.714 197.076 552.012 200.201 554.307 204.069V192.315H578.829V275.336H554.307V263.582C551.917 267.451 548.57 270.575 544.268 272.956C540.062 275.336 535.138 276.527 529.497 276.527C522.996 276.527 517.069 274.791 511.715 271.319C506.361 267.748 502.106 262.739 498.952 256.292C495.892 249.746 494.362 242.207 494.362 233.677ZM554.307 233.826C554.307 227.478 552.586 222.469 549.144 218.799C545.798 215.129 541.687 213.294 536.811 213.294C531.935 213.294 527.776 215.129 524.335 218.799C520.988 222.369 519.315 227.329 519.315 233.677C519.315 240.025 520.988 245.084 524.335 248.853C527.776 252.523 531.935 254.358 536.811 254.358C541.687 254.358 545.798 252.523 549.144 248.853C552.586 245.183 554.307 240.174 554.307 233.826Z" fill="#F5F5F5"/>
<path d="M621.093 206.152C623.961 201.589 627.546 198.018 631.849 195.44C636.151 192.761 640.931 191.422 646.189 191.422V218.352H639.449C633.33 218.352 628.741 219.741 625.682 222.518C622.623 225.196 621.093 229.957 621.093 236.801V275.336H596.57V192.315H621.093V206.152Z" fill="#F5F5F5"/>
<path d="M706.813 275.336L682.433 240.521V275.336H657.911V165.237H682.433V226.089L706.669 192.315H736.928L703.658 233.974L737.215 275.336H706.813Z" fill="#F5F5F5"/>
<path d="M821.992 232.487C821.992 234.867 821.849 237.347 821.562 239.926H766.063C766.446 245.084 768.023 249.051 770.796 251.828C773.664 254.507 777.153 255.846 781.264 255.846C787.383 255.846 791.638 253.168 794.028 247.811H820.128C818.789 253.267 816.351 258.177 812.814 262.541C809.372 266.905 805.022 270.327 799.764 272.807C794.506 275.287 788.626 276.527 782.125 276.527C774.285 276.527 767.306 274.791 761.187 271.319C755.069 267.847 750.288 262.888 746.847 256.441C743.405 249.993 741.684 242.455 741.684 233.826C741.684 225.196 743.357 217.658 746.703 211.211C750.145 204.763 754.925 199.804 761.044 196.332C767.163 192.861 774.19 191.125 782.125 191.125C789.869 191.125 796.752 192.811 802.775 196.184C808.799 199.556 813.483 204.367 816.829 210.615C820.271 216.864 821.992 224.155 821.992 232.487ZM796.896 225.791C796.896 221.427 795.462 217.955 792.594 215.377C789.725 212.798 786.14 211.508 781.838 211.508C777.727 211.508 774.237 212.748 771.369 215.228C768.597 217.707 766.876 221.229 766.207 225.791H796.896Z" fill="#F5F5F5"/>
<path d="M879.529 253.763V275.336H867.052C858.161 275.336 851.23 273.104 846.258 268.641C841.287 264.078 838.801 256.689 838.801 246.472V213.442H829.049V192.315H838.801V172.081H863.324V192.315H879.385V213.442H863.324V246.77C863.324 249.25 863.897 251.035 865.044 252.126C866.192 253.217 868.104 253.763 870.781 253.763H879.529Z" fill="#F5F5F5"/>
<path d="M481.604 170.89V275.336H457.081V212.698L434.566 275.336H414.776L392.118 212.55V275.336H367.595V170.89H396.563L424.814 243.199L452.779 170.89H481.604Z" fill="#16A34A"/>
<path d="M695.847 122.487C689.911 122.487 684.454 121.124 679.478 118.398C674.561 115.673 670.634 111.881 667.696 107.022C664.818 102.104 663.379 96.5936 663.379 90.4907C663.379 84.3878 664.818 78.907 667.696 74.0484C670.634 69.1898 674.561 65.3977 679.478 62.6721C684.454 59.9465 689.911 58.5837 695.847 58.5837C701.782 58.5837 707.209 59.9465 712.125 62.6721C717.102 65.3977 720.999 69.1898 723.817 74.0484C726.695 78.907 728.134 84.3878 728.134 90.4907C728.134 96.5936 726.695 102.104 723.817 107.022C720.939 111.881 717.042 115.673 712.125 118.398C707.209 121.124 701.782 122.487 695.847 122.487ZM695.847 108.622C700.883 108.622 704.9 106.963 707.898 103.645C710.956 100.326 712.485 95.9419 712.485 90.4907C712.485 84.9803 710.956 80.5957 707.898 77.3369C704.9 74.0188 700.883 72.3597 695.847 72.3597C690.75 72.3597 686.673 73.9892 683.615 77.248C680.617 80.5068 679.118 84.9211 679.118 90.4907C679.118 96.0011 680.617 100.415 683.615 103.733C686.673 106.992 690.75 108.622 695.847 108.622Z" fill="#16A34A"/>
<path d="M759.265 107.644L770.147 72.2709H786.516L768.708 121.864H749.731L731.924 72.2709H748.382L759.265 107.644Z" fill="#F5F5F5"/>
<path d="M840.297 96.2677C840.297 97.6898 840.207 99.1711 840.027 100.712H805.221C805.461 103.793 806.45 106.163 808.189 107.822C809.988 109.422 812.176 110.221 814.754 110.221C818.592 110.221 821.26 108.622 822.759 105.422H839.128C838.288 108.681 836.759 111.614 834.541 114.221C832.382 116.828 829.654 118.872 826.356 120.354C823.059 121.835 819.371 122.575 815.294 122.575C810.377 122.575 806 121.539 802.163 119.465C798.326 117.391 795.328 114.428 793.169 110.577C791.011 106.726 789.931 102.223 789.931 97.0676C789.931 91.9128 790.981 87.4096 793.079 83.5583C795.238 79.7069 798.236 76.7444 802.073 74.6705C805.91 72.5967 810.317 71.5598 815.294 71.5598C820.151 71.5598 824.468 72.5671 828.245 74.5817C832.022 76.5962 834.96 79.4699 837.059 83.2028C839.218 86.9356 840.297 91.2906 840.297 96.2677ZM824.558 92.2683C824.558 89.6612 823.658 87.5874 821.859 86.0468C820.061 84.5063 817.812 83.736 815.114 83.736C812.536 83.736 810.347 84.4767 808.549 85.958C806.81 87.4393 805.731 89.5427 805.311 92.2683H824.558Z" fill="#F5F5F5"/>
<path d="M863.79 80.5365C865.588 77.8109 867.837 75.6778 870.535 74.1373C873.233 72.5375 876.231 71.7376 879.529 71.7376V87.8244H875.302C871.464 87.8244 868.586 88.6539 866.668 90.313C864.749 91.9128 863.79 94.7568 863.79 98.8452V121.864H848.41V72.2709H863.79V80.5365Z" fill="#F5F5F5"/>
<path d="M695.847 122.487C689.911 122.487 684.454 121.124 679.478 118.398C674.561 115.673 670.634 111.881 667.696 107.022C664.818 102.104 663.379 96.5936 663.379 90.4907C663.379 84.3878 664.818 78.907 667.696 74.0484C670.634 69.1898 674.561 65.3977 679.478 62.6721C684.454 59.9465 689.911 58.5837 695.847 58.5837C701.782 58.5837 707.209 59.9465 712.125 62.6721C717.102 65.3977 720.999 69.1898 723.817 74.0484C726.695 78.907 728.134 84.3878 728.134 90.4907C728.134 96.5936 726.695 102.104 723.817 107.022C720.939 111.881 717.042 115.673 712.125 118.398C707.209 121.124 701.782 122.487 695.847 122.487ZM695.847 108.622C700.883 108.622 704.9 106.963 707.898 103.645C710.956 100.326 712.485 95.9419 712.485 90.4907C712.485 84.9803 710.956 80.5957 707.898 77.3369C704.9 74.0188 700.883 72.3597 695.847 72.3597C690.75 72.3597 686.673 73.9892 683.615 77.248C680.617 80.5068 679.118 84.9211 679.118 90.4907C679.118 96.0011 680.617 100.415 683.615 103.733C686.673 106.992 690.75 108.622 695.847 108.622Z" fill="#16A34A"/>
<path d="M759.265 107.644L770.147 72.2709H786.516L768.708 121.864H749.731L731.924 72.2709H748.382L759.265 107.644Z" fill="#F5F5F5"/>
<path d="M840.297 96.2677C840.297 97.6898 840.207 99.1711 840.027 100.712H805.221C805.461 103.793 806.45 106.163 808.189 107.822C809.988 109.422 812.176 110.221 814.754 110.221C818.592 110.221 821.26 108.622 822.759 105.422H839.128C838.288 108.681 836.759 111.614 834.541 114.221C832.382 116.828 829.654 118.872 826.356 120.354C823.059 121.835 819.371 122.575 815.294 122.575C810.377 122.575 806 121.539 802.163 119.465C798.326 117.391 795.328 114.428 793.169 110.577C791.011 106.726 789.931 102.223 789.931 97.0676C789.931 91.9128 790.981 87.4096 793.079 83.5583C795.238 79.7069 798.236 76.7444 802.073 74.6705C805.91 72.5967 810.317 71.5598 815.294 71.5598C820.151 71.5598 824.468 72.5671 828.245 74.5817C832.022 76.5962 834.96 79.4699 837.059 83.2028C839.218 86.9356 840.297 91.2906 840.297 96.2677ZM824.558 92.2683C824.558 89.6612 823.658 87.5874 821.859 86.0468C820.061 84.5063 817.812 83.736 815.114 83.736C812.536 83.736 810.347 84.4767 808.549 85.958C806.81 87.4393 805.731 89.5427 805.311 92.2683H824.558Z" fill="#F5F5F5"/>
<path d="M863.79 80.5365C865.588 77.8109 867.837 75.6778 870.535 74.1373C873.233 72.5375 876.231 71.7376 879.529 71.7376V87.8244H875.302C871.464 87.8244 868.586 88.6539 866.668 90.313C864.749 91.9128 863.79 94.7568 863.79 98.8452V121.864H848.41V72.2709H863.79V80.5365Z" fill="#F5F5F5"/>
<path d="M695.847 122.487C689.911 122.487 684.454 121.124 679.478 118.398C674.561 115.673 670.634 111.881 667.696 107.022C664.818 102.104 663.379 96.5936 663.379 90.4907C663.379 84.3878 664.818 78.907 667.696 74.0484C670.634 69.1898 674.561 65.3977 679.478 62.6721C684.454 59.9465 689.911 58.5837 695.847 58.5837C701.782 58.5837 707.209 59.9465 712.125 62.6721C717.102 65.3977 720.999 69.1898 723.817 74.0484C726.695 78.907 728.134 84.3878 728.134 90.4907C728.134 96.5936 726.695 102.104 723.817 107.022C720.939 111.881 717.042 115.673 712.125 118.398C707.209 121.124 701.782 122.487 695.847 122.487ZM695.847 108.622C700.883 108.622 704.9 106.963 707.898 103.645C710.956 100.326 712.485 95.9419 712.485 90.4907C712.485 84.9803 710.956 80.5957 707.898 77.3369C704.9 74.0188 700.883 72.3597 695.847 72.3597C690.75 72.3597 686.673 73.9892 683.615 77.248C680.617 80.5068 679.118 84.9211 679.118 90.4907C679.118 96.0011 680.617 100.415 683.615 103.733C686.673 106.992 690.75 108.622 695.847 108.622Z" fill="#16A34A"/>
<path d="M759.265 107.644L770.147 72.2709H786.516L768.708 121.864H749.731L731.924 72.2709H748.382L759.265 107.644Z" fill="#F5F5F5"/>
<path d="M840.297 96.2677C840.297 97.6898 840.207 99.1711 840.027 100.712H805.221C805.461 103.793 806.45 106.163 808.189 107.822C809.988 109.422 812.176 110.221 814.754 110.221C818.592 110.221 821.26 108.622 822.759 105.422H839.128C838.288 108.681 836.759 111.614 834.541 114.221C832.382 116.828 829.654 118.872 826.356 120.354C823.059 121.835 819.371 122.575 815.294 122.575C810.377 122.575 806 121.539 802.163 119.465C798.326 117.391 795.328 114.428 793.169 110.577C791.011 106.726 789.931 102.223 789.931 97.0676C789.931 91.9128 790.981 87.4096 793.079 83.5583C795.238 79.7069 798.236 76.7444 802.073 74.6705C805.91 72.5967 810.317 71.5598 815.294 71.5598C820.151 71.5598 824.468 72.5671 828.245 74.5817C832.022 76.5962 834.96 79.4699 837.059 83.2028C839.218 86.9356 840.297 91.2906 840.297 96.2677ZM824.558 92.2683C824.558 89.6612 823.658 87.5874 821.859 86.0468C820.061 84.5063 817.812 83.736 815.114 83.736C812.536 83.736 810.347 84.4767 808.549 85.958C806.81 87.4393 805.731 89.5427 805.311 92.2683H824.558Z" fill="#F5F5F5"/>
<path d="M863.79 80.5365C865.588 77.8109 867.837 75.6778 870.535 74.1373C873.233 72.5375 876.231 71.7376 879.529 71.7376V87.8244H875.302C871.464 87.8244 868.586 88.6539 866.668 90.313C864.749 91.9128 863.79 94.7568 863.79 98.8452V121.864H848.41V72.2709H863.79V80.5365Z" fill="#F5F5F5"/>
<path d="M437.634 60.1745V121.872H422.569V84.8712L408.737 121.872H396.58L382.66 84.7833V121.872H367.595V60.1745H385.391L402.747 102.888L419.926 60.1745H437.634Z" fill="#16A34A"/>
<path d="M456.044 67.7329C453.401 67.7329 451.228 66.9712 449.524 65.4478C447.88 63.8658 447.058 61.9323 447.058 59.6472C447.058 57.3035 447.88 55.3699 449.524 53.8465C451.228 52.2645 453.401 51.4735 456.044 51.4735C458.628 51.4735 460.742 52.2645 462.387 53.8465C464.09 55.3699 464.942 57.3035 464.942 59.6472C464.942 61.9323 464.09 63.8658 462.387 65.4478C460.742 66.9712 458.628 67.7329 456.044 67.7329ZM463.532 72.8304V121.872H448.467V72.8304H463.532Z" fill="#F5F5F5"/>
<path d="M504.403 72.3031C510.159 72.3031 514.74 74.1781 518.147 77.928C521.612 81.6193 523.345 86.7169 523.345 93.2206V121.872H508.368V95.2421C508.368 91.9609 507.516 89.4121 505.813 87.5957C504.11 85.7794 501.819 84.8712 498.941 84.8712C496.063 84.8712 493.773 85.7794 492.069 87.5957C490.366 89.4121 489.515 91.9609 489.515 95.2421V121.872H474.45V72.8304H489.515V79.3342C491.042 77.1663 493.097 75.4671 495.682 74.2367C498.266 72.9476 501.173 72.3031 504.403 72.3031Z" fill="#F5F5F5"/>
<path d="M530.818 97.2635C530.818 92.2245 531.758 87.8008 533.637 83.9923C535.575 80.1838 538.189 77.2542 541.478 75.2034C544.767 73.1527 548.438 72.1273 552.49 72.1273C555.721 72.1273 558.657 72.8011 561.3 74.1488C564.002 75.4964 566.116 77.3128 567.643 79.5979V56.8347H582.708V121.872H567.643V114.841C566.234 117.185 564.208 119.06 561.565 120.466C558.98 121.872 555.956 122.575 552.49 122.575C548.438 122.575 544.767 121.55 541.478 119.499C538.189 117.39 535.575 114.431 533.637 110.623C531.758 106.755 530.818 102.302 530.818 97.2635ZM567.643 97.3514C567.643 93.6015 566.586 90.6425 564.472 88.4746C562.416 86.3067 559.891 85.2227 556.895 85.2227C553.9 85.2227 551.345 86.3067 549.231 88.4746C547.175 90.5839 546.147 93.5136 546.147 97.2635C546.147 101.013 547.175 104.002 549.231 106.228C551.345 108.396 553.9 109.48 556.895 109.48C559.891 109.48 562.416 108.396 564.472 106.228C566.586 104.06 567.643 101.101 567.643 97.3514Z" fill="#F5F5F5"/>
<path d="M613.606 122.575C609.318 122.575 605.501 121.843 602.153 120.378C598.805 118.913 596.162 116.921 594.224 114.402C592.286 111.824 591.199 108.953 590.964 105.789H605.853C606.029 107.488 606.822 108.865 608.232 109.919C609.641 110.974 611.374 111.501 613.429 111.501C615.309 111.501 616.748 111.15 617.746 110.447C618.804 109.685 619.332 108.718 619.332 107.546C619.332 106.14 618.598 105.115 617.13 104.47C615.661 103.767 613.283 103.006 609.994 102.185C606.47 101.365 603.533 100.515 601.184 99.6365C598.834 98.699 596.808 97.2635 595.105 95.3299C593.402 93.3378 592.55 90.6718 592.55 87.3321C592.55 84.5196 593.314 81.9709 594.841 79.6858C596.426 77.3421 598.717 75.4964 601.712 74.1488C604.766 72.8011 608.378 72.1273 612.548 72.1273C618.715 72.1273 623.561 73.6507 627.085 76.6975C630.668 79.7444 632.723 83.7872 633.252 88.8262H619.332C619.097 87.127 618.334 85.7794 617.042 84.7833C615.808 83.7872 614.164 83.2892 612.108 83.2892C610.346 83.2892 608.995 83.6408 608.055 84.3439C607.116 84.9884 606.646 85.8966 606.646 87.0684C606.646 88.4746 607.38 89.5293 608.848 90.2324C610.375 90.9355 612.725 91.6386 615.896 92.3417C619.538 93.2792 622.504 94.2167 624.794 95.1542C627.085 96.033 629.082 97.4979 630.785 99.5486C632.547 101.541 633.457 104.236 633.516 107.634C633.516 110.505 632.694 113.083 631.049 115.369C629.464 117.595 627.144 119.353 624.089 120.642C621.094 121.931 617.6 122.575 613.606 122.575Z" fill="#F5F5F5"/>
</g>
<defs>
<filter id="filter0_d_362_667" x="84.4714" y="51.4742" width="267.124" height="233.052" filterUnits="userSpaceOnUse" color-interpolation-filters="sRGB">
<feFlood flood-opacity="0" result="BackgroundImageFix"/>
<feColorMatrix in="SourceAlpha" type="matrix" values="0 0 0 0 0 0 0 0 0 0 0 0 0 0 0 0 0 0 127 0" result="hardAlpha"/>
<feOffset dy="4"/>
<feGaussianBlur stdDeviation="2"/>
<feComposite in2="hardAlpha" operator="out"/>
<feColorMatrix type="matrix" values="0 0 0 0 0.054902 0 0 0 0 0.0745098 0 0 0 0 0.121569 0 0 0 0.7 0"/>
<feBlend mode="normal" in2="BackgroundImageFix" result="effect1_dropShadow_362_667"/>
<feBlend mode="normal" in="SourceGraphic" in2="effect1_dropShadow_362_667" result="shape"/>
</filter>
<filter id="filter1_d_362_667" x="363.595" y="51.4735" width="519.934" height="233.053" filterUnits="userSpaceOnUse" color-interpolation-filters="sRGB">
<feFlood flood-opacity="0" result="BackgroundImageFix"/>
<feColorMatrix in="SourceAlpha" type="matrix" values="0 0 0 0 0 0 0 0 0 0 0 0 0 0 0 0 0 0 127 0" result="hardAlpha"/>
<feOffset dy="4"/>
<feGaussianBlur stdDeviation="2"/>
<feComposite in2="hardAlpha" operator="out"/>
<feColorMatrix type="matrix" values="0 0 0 0 0.054902 0 0 0 0 0.0745098 0 0 0 0 0.121569 0 0 0 0.7 0"/>
<feBlend mode="normal" in2="BackgroundImageFix" result="effect1_dropShadow_362_667"/>
<feBlend mode="normal" in="SourceGraphic" in2="effect1_dropShadow_362_667" result="shape"/>
</filter>
</defs>
</svg>
