<?xml version="1.0" encoding="UTF-8"?>
<svg id="Capa_2" data-name="Capa 2" xmlns="http://www.w3.org/2000/svg" xmlns:xlink="http://www.w3.org/1999/xlink" viewBox="0 0 426.61 170.59">
  <defs>
    <style>
      .cls-1, .cls-2 {
        fill: #16a34a;
      }

      .cls-1, .cls-3 {
        fill-rule: evenodd;
      }

      .cls-4, .cls-3 {
        fill: #0284c7;
      }

      .cls-5 {
        fill: #f5f5f5;
      }

      .cls-6 {
        fill: url(#Degradado_sin_nombre_4);
      }
    </style>
    <linearGradient id="Degradado_sin_nombre_4" data-name="Degradado sin nombre 4" x1="328.54" y1="4.27" x2="328.54" y2="38.78" gradientUnits="userSpaceOnUse">
      <stop offset="0" stop-color="#16a34a"/>
      <stop offset="1" stop-color="#0284c7"/>
    </linearGradient>
  </defs>
  <g id="logo-degra">
    <g>
      <g>
        <path class="cls-1" d="m3.11,3.93c.31-.17.63-.3.97-.41-.33.11-.66.24-.97.41Z"/>
        <path class="cls-1" d="m7.53,3.52c.35.11.67.24.98.41-.32-.17-.64-.3-.98-.41Z"/>
        <path class="cls-1" d="m61.68,73.03c.43.43.9.77,1.41,1.04-.52-.26-1.01-.62-1.44-1.05-.08-.08-.14-.15-.2-.23l.24.24Z"/>
        <path class="cls-1" d="m131.31,9.4v-.15c0-.08,0-.17,0-.25.02.08.02.17.02.26,0,.05,0,.1,0,.14Z"/>
        <path class="cls-1" d="m27.65,30.86c-2.27,2.26-5.94,2.26-8.21,0l-7.84-7.83v88.48c0,3.2-2.59,5.79-5.8,5.79S0,114.71,0,111.52V9.05c0-.08,0-.17,0-.26,0-.03,0-.07,0-.1,0-.08,0-.16.02-.24,0-.1.02-.19.04-.29.02-.18.06-.35.11-.53,0-.02,0-.05.02-.08.05-.17.11-.35.17-.51.05-.14.1-.27.17-.4.13-.29.29-.58.47-.86.09-.14.2-.28.31-.41,0-.01.02-.02.02-.03.12-.14.24-.28.38-.41.14-.13.27-.26.41-.38,0,0,.02-.02.03-.02.14-.11.27-.21.41-.31l.11-.07c.14-.09.29-.18.44-.26.31-.17.64-.3.97-.41l.08-.02c.16-.05.32-.09.47-.12l.14-.03c.14-.02.29-.05.44-.06h.03c.18-.02.37-.03.55-.03h.01c.18,0,.37,0,.55.03.16.02.32.03.47.07.05,0,.1.02.14.02.16.03.32.08.48.12.03,0,.05.02.08.02.34.11.66.24.98.41.14.08.29.16.43.25.04.02.08.05.11.08.12.08.23.17.35.26.05.03.09.07.14.11.13.11.26.23.38.35l.2.2,17.55,17.51c2.26,2.27,2.26,5.93,0,8.19Z"/>
        <path class="cls-1" d="m0,9.05c0-.08,0-.17,0-.26-.02.14-.02.26,0,.4v-.14Z"/>
        <path class="cls-1" d="m131.31,9.14v102.37c0,3.2-2.59,5.8-5.8,5.8s-5.81-2.59-5.81-5.8V23.24l-10.91,10.89-26.65,26.61-11.84,11.82-.46.46c-1.28,1.27-3,1.83-4.66,1.67-.36-.03-.71-.09-1.07-.2-.17-.06-.35-.11-.53-.18-.18-.08-.34-.15-.52-.25-.5-.26-.97-.6-1.4-1.04l-.24-.24-17.5-17.48c-2.26-2.26-2.26-5.93,0-8.19,1.13-1.13,2.62-1.7,4.11-1.7s2.97.57,4.1,1.7l13.61,13.59,8.19-8.18,26.66-26.6,20.6-20.58c.07-.07.12-.13.19-.2.28-.28.58-.53.91-.74.16-.1.33-.2.49-.29.14-.08.29-.14.44-.21.03-.02.05-.02.08-.03.35-.13.71-.25,1.07-.32.74-.14,1.49-.14,2.22,0,.36.08.72.19,1.07.32.02,0,.04,0,.08.03.15.07.29.13.43.21.16.09.33.19.49.29.14.09.27.19.41.29.02,0,.05.03.07.06h0c.08.06.15.12.22.2.08.06.14.12.22.2.13.13.25.27.38.41,0,0,0,.03.02.03.11.14.22.27.31.41.13.2.25.4.35.6.07.1.11.21.15.31.02.03.03.05.04.08.04.08.07.15.08.24.05.09.08.2.1.3.03.07.05.13.07.2,0,.06.03.11.04.17.04.15.08.3.09.47.02.08.03.19.04.28,0,.08.02.15.02.23v.12s0,.08,0,.13Z"/>
        <path class="cls-1" d="m70.31,72.56c-.13.17-.27.32-.42.47-1.29,1.28-3.02,1.84-4.7,1.66,1.66.16,3.38-.4,4.66-1.67l.46-.46Z"/>
        <path class="cls-1" d="m121.4,5.16c.27-.28.58-.53.91-.74-.32.21-.62.46-.91.74Z"/>
        <path class="cls-1" d="m123.33,3.89c.34-.14.7-.25,1.07-.32-.37.07-.73.18-1.07.32Z"/>
        <path class="cls-1" d="m125.51,3.46c.38,0,.75.04,1.11.11-.73-.14-1.49-.14-2.22,0,.36-.08.73-.11,1.11-.11Z"/>
        <path class="cls-1" d="m126.62,3.57c.37.07.73.17,1.07.32-.35-.14-.71-.25-1.07-.32Z"/>
        <path class="cls-1" d="m129.61,5.16h0c-.29-.28-.59-.53-.91-.74.33.21.63.46.91.74Z"/>
        <path class="cls-3" d="m106.55,45.94l-8.62,8.62c4.36,9.5,4.71,21.22-1.09,32.99-2.94,5.96-7.77,10.81-13.72,13.76-33.41,16.55-66.41-16.33-49.96-49.69,2.92-5.92,7.73-10.74,13.64-13.7,11.55-5.79,23.08-5.62,32.55-1.54l8.65-8.65c-12.64-6.95-28.78-8.34-45.09-.91-9.1,4.14-16.47,11.42-20.64,20.48-19.82,43,21.91,84.7,64.97,64.98,9.11-4.17,16.42-11.53,20.58-20.62,7.6-16.58,6-32.98-1.26-45.71Z"/>
      </g>
      <g>
        <g>
          <path class="cls-2" d="m213.5,63.44v53.84h-13.11v-32.29l-12.04,32.29h-10.58l-12.12-32.36v32.36h-13.11v-53.84h15.49l15.11,37.27,14.96-37.27h15.41Z"/>
          <path class="cls-5" d="m222.82,84.23c1.66-3.32,3.92-5.88,6.79-7.67,2.86-1.79,6.06-2.68,9.59-2.68,3.02,0,5.66.61,7.94,1.84,2.27,1.23,4.03,2.84,5.25,4.83v-6.06h13.11v42.79h-13.11v-6.06c-1.28,1.99-3.06,3.6-5.33,4.83-2.28,1.23-4.92,1.84-7.94,1.84-3.48,0-6.65-.91-9.51-2.72-2.86-1.81-5.13-4.4-6.79-7.75-1.66-3.35-2.49-7.22-2.49-11.62s.83-8.26,2.49-11.58Zm26.84,3.91c-1.82-1.89-4.03-2.84-6.63-2.84s-4.82.93-6.63,2.8c-1.82,1.87-2.72,4.44-2.72,7.71s.91,5.87,2.72,7.78c1.81,1.92,4.03,2.88,6.63,2.88s4.82-.95,6.63-2.84c1.81-1.89,2.72-4.47,2.72-7.75s-.91-5.85-2.72-7.75Z"/>
          <path class="cls-5" d="m293.87,76.06c2.3-1.35,4.86-2.03,7.67-2.03v13.88h-3.6c-3.27,0-5.73.7-7.36,2.11-1.64,1.41-2.45,3.87-2.45,7.4v19.86h-13.11v-42.79h13.11v7.13c1.53-2.35,3.45-4.2,5.75-5.56Z"/>
          <path class="cls-5" d="m333.98,117.28l-13.04-17.95v17.95h-13.11v-56.75h13.11v31.37l12.96-17.41h16.18l-17.79,21.47,17.94,21.32h-16.26Z"/>
          <path class="cls-5" d="m395.33,99.03h-29.68c.2,2.66,1.06,4.69,2.57,6.1,1.51,1.41,3.36,2.11,5.56,2.11,3.27,0,5.55-1.38,6.83-4.14h13.96c-.72,2.81-2.01,5.34-3.87,7.59-1.87,2.25-4.2,4.01-7.02,5.29-2.81,1.28-5.96,1.92-9.43,1.92-4.19,0-7.92-.89-11.2-2.68-3.27-1.79-5.83-4.35-7.67-7.67-1.84-3.32-2.76-7.21-2.76-11.66s.91-8.33,2.72-11.66c1.81-3.32,4.36-5.88,7.63-7.67,3.27-1.79,7.03-2.68,11.27-2.68s7.82.87,11.04,2.61c3.22,1.74,5.74,4.22,7.55,7.44s2.72,6.98,2.72,11.27c0,1.23-.08,2.51-.23,3.84Zm-13.19-7.29c0-2.25-.77-4.04-2.3-5.37-1.53-1.33-3.45-1.99-5.75-1.99s-4.05.64-5.56,1.92c-1.51,1.28-2.44,3.09-2.8,5.45h16.41Z"/>
          <path class="cls-5" d="m426.32,106.16v11.12h-6.67c-4.75,0-8.46-1.16-11.12-3.49-2.66-2.33-3.99-6.12-3.99-11.39v-17.03h-5.22v-10.89h5.22v-10.43h13.11v10.43h8.59v10.89h-8.59v17.18c0,1.28.31,2.2.92,2.76.61.56,1.64.84,3.07.84h4.68Z"/>
        </g>
        <g>
          <g>
            <path class="cls-6" d="m319.88,36.58c-2.64-1.47-4.74-3.53-6.29-6.17-1.55-2.64-2.33-5.61-2.33-8.9s.78-6.26,2.33-8.88c1.55-2.62,3.65-4.67,6.29-6.14,2.64-1.47,5.54-2.21,8.71-2.21s6.07.74,8.71,2.21c2.64,1.47,4.72,3.52,6.24,6.14,1.52,2.62,2.28,5.58,2.28,8.88s-.77,6.26-2.3,8.9-3.62,4.7-6.24,6.17c-2.62,1.47-5.52,2.21-8.69,2.21s-6.07-.74-8.71-2.21Zm15.17-7.97c1.62-1.79,2.42-4.16,2.42-7.1s-.81-5.35-2.42-7.13c-1.62-1.78-3.77-2.66-6.46-2.66s-4.89.88-6.5,2.64c-1.62,1.76-2.42,4.14-2.42,7.15s.81,5.35,2.42,7.13c1.62,1.78,3.78,2.66,6.5,2.66s4.84-.9,6.46-2.69Z"/>
            <path class="cls-5" d="m362.43,30.77l5.81-19.1h8.74l-9.5,26.78h-10.13l-9.5-26.78h8.78l5.81,19.1Z"/>
            <path class="cls-5" d="m405.54,27.02h-18.58c.13,1.66.66,2.94,1.61,3.82.94.88,2.1,1.32,3.48,1.32,2.05,0,3.47-.86,4.27-2.59h8.74c-.45,1.76-1.26,3.34-2.42,4.75-1.17,1.41-2.63,2.51-4.39,3.31-1.76.8-3.73,1.2-5.9,1.2-2.62,0-4.96-.56-7.01-1.68-2.05-1.12-3.65-2.72-4.8-4.8-1.15-2.08-1.73-4.51-1.73-7.3s.57-5.22,1.7-7.3c1.14-2.08,2.73-3.68,4.78-4.8,2.05-1.12,4.4-1.68,7.06-1.68s4.9.54,6.91,1.63c2.02,1.09,3.59,2.64,4.73,4.66s1.7,4.37,1.7,7.06c0,.77-.05,1.57-.14,2.4Zm-8.26-4.56c0-1.41-.48-2.53-1.44-3.36-.96-.83-2.16-1.25-3.6-1.25s-2.54.4-3.48,1.2c-.94.8-1.53,1.94-1.75,3.41h10.27Z"/>
            <path class="cls-5" d="m421.81,12.65c1.44-.85,3.04-1.27,4.8-1.27v8.69h-2.26c-2.05,0-3.58.44-4.61,1.32-1.02.88-1.54,2.42-1.54,4.63v12.43h-8.21V11.66h8.21v4.46c.96-1.47,2.16-2.63,3.6-3.48Z"/>
          </g>
          <g>
            <path class="cls-2" d="m190.69,4.75v33.7h-8.21v-20.21l-7.54,20.21h-6.62l-7.58-20.26v20.26h-8.21V4.75h9.7l9.46,23.33,9.36-23.33h9.65Z"/>
            <path class="cls-5" d="m197.19,7.61c-.91-.85-1.37-1.9-1.37-3.14s.46-2.34,1.37-3.19c.91-.85,2.09-1.27,3.53-1.27s2.57.42,3.48,1.27c.91.85,1.37,1.91,1.37,3.19s-.46,2.3-1.37,3.14c-.91.85-2.07,1.27-3.48,1.27s-2.62-.42-3.53-1.27Zm7.61,4.06v26.78h-8.21V11.66h8.21Z"/>
            <path class="cls-5" d="m234.58,14.42c1.87,2.03,2.81,4.82,2.81,8.38v15.65h-8.16v-14.54c0-1.79-.46-3.18-1.39-4.18-.93-.99-2.18-1.49-3.74-1.49s-2.82.5-3.74,1.49c-.93.99-1.39,2.38-1.39,4.18v14.54h-8.21V11.66h8.21v3.55c.83-1.18,1.95-2.12,3.36-2.81,1.41-.69,2.99-1.03,4.75-1.03,3.14,0,5.64,1.02,7.51,3.05Z"/>
            <path class="cls-5" d="m243.03,17.76c1.04-2.08,2.46-3.68,4.25-4.8,1.79-1.12,3.79-1.68,6-1.68,1.76,0,3.37.37,4.82,1.1,1.46.74,2.6,1.73,3.43,2.98V2.93h8.21v35.52h-8.21v-3.84c-.77,1.28-1.86,2.3-3.29,3.07-1.42.77-3.08,1.15-4.97,1.15-2.21,0-4.21-.57-6-1.7-1.79-1.14-3.21-2.75-4.25-4.85-1.04-2.1-1.56-4.52-1.56-7.27s.52-5.17,1.56-7.25Zm16.8,2.45c-1.14-1.18-2.52-1.78-4.15-1.78s-3.02.58-4.15,1.75c-1.14,1.17-1.7,2.78-1.7,4.82s.57,3.67,1.7,4.87c1.13,1.2,2.52,1.8,4.15,1.8s3.02-.59,4.15-1.78c1.14-1.18,1.7-2.8,1.7-4.85s-.57-3.66-1.7-4.85Z"/>
            <path class="cls-5" d="m280.35,37.63c-1.82-.8-3.26-1.9-4.32-3.29-1.06-1.39-1.65-2.95-1.78-4.68h8.11c.1.93.53,1.68,1.3,2.26.77.58,1.71.86,2.83.86,1.02,0,1.82-.2,2.38-.6.56-.4.84-.92.84-1.56,0-.77-.4-1.34-1.2-1.7-.8-.37-2.1-.78-3.89-1.22-1.92-.45-3.52-.92-4.8-1.42-1.28-.5-2.38-1.28-3.31-2.35-.93-1.07-1.39-2.52-1.39-4.34,0-1.54.42-2.94,1.27-4.2.85-1.26,2.1-2.26,3.74-3,1.65-.74,3.61-1.1,5.88-1.1,3.36,0,6.01.83,7.94,2.5,1.94,1.66,3.05,3.87,3.34,6.62h-7.58c-.13-.93-.54-1.66-1.22-2.21-.69-.54-1.59-.82-2.71-.82-.96,0-1.7.18-2.21.55-.51.37-.77.87-.77,1.51,0,.77.41,1.34,1.22,1.73.82.38,2.09.77,3.82,1.15,1.98.51,3.6,1.02,4.85,1.51,1.25.5,2.34,1.3,3.29,2.4.94,1.1,1.43,2.58,1.46,4.44,0,1.57-.44,2.97-1.32,4.2-.88,1.23-2.14,2.2-3.79,2.9-1.65.7-3.56,1.06-5.74,1.06-2.34,0-4.42-.4-6.24-1.2Z"/>
          </g>
        </g>
        <rect class="cls-4" x="152.32" y="46.26" width="274" height="10" rx="5" ry="5"/>
      </g>
      <g>
        <path class="cls-5" d="m4.87,141.34v6.04h7.65v3.83h-7.65v6.39h8.63v3.94H.32v-24.14h13.18v3.94H4.87Z"/>
        <path class="cls-5" d="m17.55,146.76c.73-1.5,1.72-2.65,2.98-3.45,1.26-.81,2.66-1.21,4.2-1.21,1.17,0,2.29.27,3.35.81s1.91,1.26,2.54,2.16v-9.08h4.62v25.55h-4.62v-2.83c-.56.94-1.36,1.7-2.38,2.28-1.02.57-2.2.86-3.55.86-1.52,0-2.91-.41-4.17-1.24-1.26-.83-2.25-2-2.98-3.5-.73-1.51-1.09-3.24-1.09-5.2s.36-3.65,1.09-5.14Zm12.45,2.19c-.43-.84-1.02-1.48-1.76-1.93-.74-.45-1.53-.67-2.38-.67s-1.63.22-2.34.66c-.72.44-1.3,1.08-1.74,1.92-.45.84-.67,1.84-.67,2.99s.22,2.16.67,3.02c.44.86,1.03,1.53,1.76,1.99.73.46,1.5.69,2.33.69s1.64-.22,2.38-.67c.74-.45,1.32-1.09,1.76-1.93.43-.84.65-1.85.65-3.02s-.22-2.18-.65-3.02Z"/>
        <path class="cls-5" d="m56.72,142.41v19.13h-4.59v-2.42c-.59.83-1.35,1.48-2.29,1.95-.94.47-1.97.71-3.08.71-1.41,0-2.66-.32-3.74-.95-1.08-.63-1.94-1.57-2.55-2.8-.62-1.23-.93-2.7-.93-4.4v-11.22h4.56v10.53c0,1.52.36,2.69,1.07,3.5.72.82,1.69,1.23,2.93,1.23s2.25-.41,2.96-1.23c.72-.82,1.07-1.99,1.07-3.5v-10.53h4.59Z"/>
        <path class="cls-5" d="m61.18,146.78c.76-1.49,1.81-2.64,3.16-3.45,1.35-.82,2.89-1.23,4.62-1.23,2.23,0,4.08.59,5.55,1.78,1.46,1.19,2.45,2.85,2.95,4.99h-4.91c-.26-.83-.7-1.48-1.32-1.95-.62-.47-1.38-.71-2.29-.71-1.3,0-2.33.5-3.09,1.5-.76,1-1.14,2.42-1.14,4.26s.38,3.23,1.14,4.23c.76,1,1.79,1.5,3.09,1.5,1.84,0,3.05-.87,3.61-2.62h4.91c-.5,2.07-1.49,3.72-2.96,4.94-1.48,1.22-3.32,1.83-5.53,1.83-1.74,0-3.28-.41-4.62-1.23-1.35-.82-2.4-1.97-3.16-3.45-.76-1.49-1.14-3.22-1.14-5.2s.38-3.71,1.14-5.2Z"/>
        <path class="cls-5" d="m80.72,146.76c.73-1.5,1.71-2.65,2.96-3.45,1.25-.81,2.64-1.21,4.18-1.21,1.35,0,2.52.29,3.53.86,1.01.58,1.82,1.3,2.42,2.18v-2.73h4.59v19.13h-4.59v-2.8c-.59.9-1.39,1.64-2.42,2.23-1.03.59-2.22.88-3.56.88-1.52,0-2.9-.41-4.15-1.24-1.25-.83-2.23-2-2.96-3.5-.73-1.51-1.09-3.24-1.09-5.2s.36-3.65,1.09-5.14Zm12.45,2.19c-.43-.84-1.02-1.48-1.76-1.93-.74-.45-1.53-.67-2.38-.67s-1.63.22-2.34.66c-.72.44-1.3,1.08-1.74,1.92-.45.84-.67,1.84-.67,2.99s.22,2.16.67,3.02c.44.86,1.03,1.53,1.76,1.99.73.46,1.5.69,2.33.69s1.64-.22,2.38-.67c.74-.45,1.32-1.09,1.76-1.93.43-.84.65-1.85.65-3.02s-.22-2.18-.65-3.02Z"/>
        <path class="cls-5" d="m102.84,146.78c.76-1.49,1.81-2.64,3.16-3.45,1.35-.82,2.89-1.23,4.62-1.23,2.23,0,4.08.59,5.55,1.78,1.46,1.19,2.45,2.85,2.95,4.99h-4.91c-.26-.83-.7-1.48-1.32-1.95-.62-.47-1.38-.71-2.29-.71-1.3,0-2.33.5-3.09,1.5-.76,1-1.14,2.42-1.14,4.26s.38,3.23,1.14,4.23c.76,1,1.79,1.5,3.09,1.5,1.84,0,3.05-.87,3.61-2.62h4.91c-.5,2.07-1.49,3.72-2.96,4.94-1.48,1.22-3.32,1.83-5.53,1.83-1.74,0-3.28-.41-4.62-1.23-1.35-.82-2.4-1.97-3.16-3.45-.76-1.49-1.14-3.22-1.14-5.2s.38-3.71,1.14-5.2Z"/>
        <path class="cls-5" d="m122.77,139.32c-.53-.54-.8-1.21-.8-2.02s.26-1.48.8-2.02c.53-.54,1.2-.81,2-.81s1.47.27,2,.81c.53.54.8,1.21.8,2.02s-.27,1.48-.8,2.02c-.53.54-1.2.81-2,.81s-1.47-.27-2-.81Zm4.25,3.09v19.13h-4.56v-19.13h4.56Z"/>
        <path class="cls-5" d="m134.83,160.62c-1.39-.82-2.48-1.97-3.27-3.47-.79-1.5-1.19-3.22-1.19-5.18s.41-3.68,1.22-5.18c.81-1.5,1.92-2.65,3.34-3.47,1.41-.82,2.98-1.23,4.72-1.23s3.31.41,4.72,1.23c1.41.82,2.52,1.97,3.34,3.47.81,1.5,1.22,3.22,1.22,5.18s-.42,3.68-1.25,5.18c-.84,1.5-1.96,2.65-3.38,3.47-1.42.82-3.01,1.23-4.77,1.23s-3.3-.41-4.69-1.23Zm7.01-3.63c.73-.43,1.31-1.06,1.74-1.92.43-.85.65-1.89.65-3.11,0-1.82-.45-3.22-1.35-4.2-.9-.98-2-1.47-3.3-1.47s-2.39.49-3.27,1.47c-.88.98-1.32,2.38-1.32,4.2s.43,3.22,1.29,4.2c.86.98,1.94,1.47,3.24,1.47.82,0,1.6-.21,2.33-.64Zm1.55-19.8l-7.49,3.63v-3.45l7.49-4.11v3.94Z"/>
        <path class="cls-5" d="m167.48,144.29c1.32,1.44,1.99,3.45,1.99,6.03v11.22h-4.56v-10.57c0-1.52-.36-2.69-1.07-3.5-.72-.82-1.69-1.23-2.93-1.23s-2.25.41-2.98,1.23c-.73.82-1.09,1.99-1.09,3.5v10.57h-4.56v-19.13h4.56v2.38c.61-.83,1.38-1.48,2.33-1.95.94-.47,1.98-.71,3.11-.71,2.15,0,3.88.72,5.21,2.16Z"/>
        <path class="cls-5" d="m181.5,146.78c.76-1.49,1.81-2.64,3.16-3.45,1.35-.82,2.89-1.23,4.62-1.23,2.23,0,4.08.59,5.55,1.78,1.46,1.19,2.45,2.85,2.95,4.99h-4.91c-.26-.83-.7-1.48-1.32-1.95-.62-.47-1.38-.71-2.29-.71-1.3,0-2.33.5-3.09,1.5-.76,1-1.14,2.42-1.14,4.26s.38,3.23,1.14,4.23c.76,1,1.79,1.5,3.09,1.5,1.84,0,3.05-.87,3.61-2.62h4.91c-.5,2.07-1.49,3.72-2.96,4.94-1.48,1.22-3.32,1.83-5.53,1.83-1.74,0-3.28-.41-4.62-1.23-1.35-.82-2.4-1.97-3.16-3.45-.76-1.49-1.14-3.22-1.14-5.2s.38-3.71,1.14-5.2Z"/>
        <path class="cls-5" d="m205.68,135.99v25.55h-4.56v-25.55h4.56Z"/>
        <path class="cls-5" d="m210.09,146.76c.73-1.5,1.71-2.65,2.96-3.45,1.25-.81,2.64-1.21,4.18-1.21,1.35,0,2.52.29,3.53.86,1.01.58,1.82,1.3,2.42,2.18v-2.73h4.59v19.13h-4.59v-2.8c-.59.9-1.39,1.64-2.42,2.23-1.03.59-2.22.88-3.56.88-1.52,0-2.9-.41-4.15-1.24-1.25-.83-2.23-2-2.96-3.5-.73-1.51-1.09-3.24-1.09-5.2s.36-3.65,1.09-5.14Zm12.45,2.19c-.43-.84-1.02-1.48-1.76-1.93-.74-.45-1.53-.67-2.38-.67s-1.63.22-2.34.66c-.72.44-1.3,1.08-1.74,1.92-.45.84-.67,1.84-.67,2.99s.22,2.16.67,3.02c.44.86,1.03,1.53,1.76,1.99.73.46,1.5.69,2.33.69s1.64-.22,2.38-.67c.74-.45,1.32-1.09,1.76-1.93.43-.84.65-1.85.65-3.02s-.22-2.18-.65-3.02Z"/>
        <path class="cls-5" d="m239.09,143c.94-.58,2.02-.86,3.24-.86v5.08h-1.2c-1.43,0-2.51.36-3.24,1.07-.73.71-1.09,1.96-1.09,3.73v9.53h-4.56v-19.13h4.56v2.97c.59-1.01,1.35-1.81,2.29-2.38Z"/>
        <path class="cls-5" d="m245.31,146.76c.73-1.5,1.71-2.65,2.96-3.45,1.25-.81,2.64-1.21,4.18-1.21,1.35,0,2.52.29,3.53.86,1.01.58,1.82,1.3,2.42,2.18v-2.73h4.59v19.13h-4.59v-2.8c-.59.9-1.39,1.64-2.42,2.23-1.03.59-2.22.88-3.56.88-1.52,0-2.9-.41-4.15-1.24-1.25-.83-2.23-2-2.96-3.5-.73-1.51-1.09-3.24-1.09-5.2s.36-3.65,1.09-5.14Zm12.45,2.19c-.43-.84-1.02-1.48-1.76-1.93-.74-.45-1.53-.67-2.38-.67s-1.63.22-2.34.66c-.72.44-1.3,1.08-1.74,1.92-.45.84-.67,1.84-.67,2.99s.22,2.16.67,3.02c.44.86,1.03,1.53,1.76,1.99.73.46,1.5.69,2.33.69s1.64-.22,2.38-.67c.74-.45,1.32-1.09,1.76-1.93.43-.84.65-1.85.65-3.02s-.22-2.18-.65-3.02Z"/>
        <path class="cls-5" d="m292.45,142.41l-11.16,28.18h-4.85l3.91-9.53-7.23-18.65h5.11l4.65,13.36,4.72-13.36h4.85Z"/>
        <path class="cls-5" d="m305.57,161c-1.17-.56-2.1-1.33-2.78-2.3-.68-.97-1.06-2.04-1.12-3.21h4.59c.09.74.43,1.35,1.03,1.83.6.48,1.34.73,2.23.73s1.55-.18,2.03-.55c.49-.37.73-.84.73-1.42,0-.62-.3-1.09-.9-1.4-.6-.31-1.55-.65-2.85-1.02-1.35-.35-2.45-.7-3.3-1.07-.86-.37-1.59-.93-2.21-1.69-.62-.76-.93-1.78-.93-3.07,0-1.06.29-2.03.86-2.9s1.4-1.57,2.47-2.07c1.07-.51,2.34-.76,3.79-.76,2.15,0,3.86.57,5.14,1.71,1.28,1.14,1.99,2.68,2.12,4.61h-4.36c-.07-.76-.36-1.36-.9-1.81s-1.24-.67-2.13-.67c-.83,0-1.46.16-1.9.48-.45.32-.67.77-.67,1.35,0,.64.3,1.13.91,1.47.61.33,1.55.67,2.83,1.02,1.3.35,2.38.7,3.22,1.07.85.37,1.58.94,2.2,1.71.62.77.94,1.79.96,3.06,0,1.1-.29,2.1-.86,2.97-.57.88-1.4,1.56-2.47,2.05-1.07.49-2.33.74-3.76.74s-2.8-.28-3.97-.85Z"/>
        <path class="cls-5" d="m337.01,153.42h-13.18c.11,1.38.56,2.46,1.37,3.25.8.78,1.79,1.17,2.96,1.17,1.69,0,2.9-.77,3.61-2.31h4.91c-.52,1.84-1.52,3.36-2.99,4.54-1.48,1.19-3.29,1.78-5.44,1.78-1.74,0-3.29-.41-4.67-1.23-1.38-.82-2.45-1.97-3.22-3.47-.77-1.5-1.16-3.22-1.16-5.18s.38-3.72,1.14-5.21c.76-1.5,1.82-2.65,3.19-3.45,1.37-.81,2.94-1.21,4.72-1.21s3.25.39,4.61,1.17c1.36.78,2.41,1.89,3.16,3.33.75,1.44,1.12,3.09,1.12,4.96,0,.69-.04,1.31-.13,1.86Zm-4.59-3.25c-.02-1.24-.45-2.24-1.27-2.99-.83-.75-1.83-1.12-3.03-1.12-1.13,0-2.08.36-2.85,1.09s-1.24,1.73-1.42,3.02h8.56Z"/>
        <path class="cls-5" d="m355.66,144.29c1.32,1.44,1.99,3.45,1.99,6.03v11.22h-4.56v-10.57c0-1.52-.36-2.69-1.07-3.5-.72-.82-1.69-1.23-2.93-1.23s-2.25.41-2.98,1.23c-.73.82-1.09,1.99-1.09,3.5v10.57h-4.56v-19.13h4.56v2.38c.61-.83,1.38-1.48,2.33-1.95.94-.47,1.98-.71,3.11-.71,2.15,0,3.88.72,5.21,2.16Z"/>
        <path class="cls-5" d="m361.94,146.78c.76-1.49,1.81-2.64,3.16-3.45,1.35-.82,2.89-1.23,4.62-1.23,2.23,0,4.08.59,5.55,1.78,1.46,1.19,2.45,2.85,2.95,4.99h-4.91c-.26-.83-.7-1.48-1.32-1.95-.62-.47-1.38-.71-2.29-.71-1.3,0-2.33.5-3.09,1.5-.76,1-1.14,2.42-1.14,4.26s.38,3.23,1.14,4.23c.76,1,1.79,1.5,3.09,1.5,1.84,0,3.05-.87,3.61-2.62h4.91c-.5,2.07-1.49,3.72-2.96,4.94-1.48,1.22-3.32,1.83-5.53,1.83-1.74,0-3.28-.41-4.62-1.23-1.35-.82-2.4-1.97-3.16-3.45-.76-1.49-1.14-3.22-1.14-5.2s.38-3.71,1.14-5.2Z"/>
        <path class="cls-5" d="m381.87,139.32c-.53-.54-.8-1.21-.8-2.02s.26-1.48.8-2.02c.53-.54,1.2-.81,2-.81s1.47.27,2,.81c.53.54.8,1.21.8,2.02s-.27,1.48-.8,2.02c-.53.54-1.2.81-2,.81s-1.47-.27-2-.81Zm4.25,3.09v19.13h-4.56v-19.13h4.56Z"/>
        <path class="cls-5" d="m395.17,135.99v25.55h-4.56v-25.55h4.56Z"/>
        <path class="cls-5" d="m404.22,135.99v25.55h-4.56v-25.55h4.56Z"/>
        <path class="cls-5" d="m408.63,146.76c.73-1.5,1.71-2.65,2.96-3.45,1.25-.81,2.64-1.21,4.18-1.21,1.35,0,2.52.29,3.53.86,1.01.58,1.82,1.3,2.42,2.18v-2.73h4.59v19.13h-4.59v-2.8c-.59.9-1.39,1.64-2.42,2.23-1.03.59-2.22.88-3.56.88-1.52,0-2.9-.41-4.15-1.24-1.25-.83-2.23-2-2.96-3.5-.73-1.51-1.09-3.24-1.09-5.2s.36-3.65,1.09-5.14Zm12.45,2.19c-.43-.84-1.02-1.48-1.76-1.93-.74-.45-1.53-.67-2.38-.67s-1.63.22-2.34.66c-.72.44-1.3,1.08-1.74,1.92-.45.84-.67,1.84-.67,2.99s.22,2.16.67,3.02c.44.86,1.03,1.53,1.76,1.99.73.46,1.5.69,2.33.69s1.64-.22,2.38-.67c.74-.45,1.32-1.09,1.76-1.93.43-.84.65-1.85.65-3.02s-.22-2.18-.65-3.02Z"/>
      </g>
    </g>
  </g>
</svg>