<svg width="1024" height="1024" viewBox="0 0 1024 1024" fill="none" xmlns="http://www.w3.org/2000/svg">
<g clip-path="url(#clip0_113_13)">
<path fill-rule="evenodd" clip-rule="evenodd" d="M112.83 152.26C114.79 151.21 116.86 150.35 119.01 149.68C116.9 150.35 114.79 151.21 112.83 152.26Z" fill="url(#paint0_linear_113_13)"/>
<path fill-rule="evenodd" clip-rule="evenodd" d="M141.01 149.67C143.21 150.34 145.28 151.2 147.24 152.25C145.23 151.2 143.17 150.34 141.01 149.67Z" fill="url(#paint1_linear_113_13)"/>
<path fill-rule="evenodd" clip-rule="evenodd" d="M486.33 592.95C489.06 595.68 492.08 597.88 495.29 599.55C491.98 597.88 488.87 595.63 486.09 592.85C485.61 592.37 485.18 591.89 484.8 591.41L486.33 592.94V592.95Z" fill="url(#paint2_linear_113_13)"/>
<path fill-rule="evenodd" clip-rule="evenodd" d="M930.35 187.19V186.23C930.35 185.7 930.35 185.18 930.3 184.65C930.4 185.18 930.4 185.75 930.4 186.28C930.4 186.57 930.4 186.9 930.35 187.19Z" fill="url(#paint3_linear_113_13)"/>
<path fill-rule="evenodd" clip-rule="evenodd" d="M269.33 324.04C254.85 338.44 231.46 338.44 216.99 324.04L166.99 274.13V838.36C166.99 858.74 150.45 875.3 130.03 875.3C109.61 875.3 93.03 858.75 93.03 838.36V184.94C93.03 184.41 93.03 183.84 93.08 183.31C93.03 183.12 93.08 182.88 93.13 182.69C93.13 182.16 93.18 181.69 93.23 181.16C93.23 180.54 93.33 179.96 93.47 179.34C93.61 178.19 93.85 177.09 94.14 175.99C94.14 175.85 94.19 175.7 94.24 175.51C94.53 174.41 94.91 173.31 95.29 172.26C95.58 171.4 95.91 170.54 96.35 169.72C97.17 167.85 98.17 166.04 99.37 164.27C99.95 163.36 100.62 162.5 101.33 161.64C101.38 161.54 101.43 161.5 101.47 161.45C102.24 160.54 103 159.68 103.87 158.82C104.73 158.01 105.6 157.19 106.51 156.43C106.56 156.38 106.61 156.33 106.7 156.29C107.56 155.62 108.43 154.95 109.34 154.33L110.01 153.9C110.92 153.33 111.88 152.75 112.84 152.27C114.8 151.22 116.91 150.36 119.02 149.69L119.55 149.55C120.56 149.22 121.56 148.98 122.57 148.78L123.48 148.59C124.39 148.45 125.35 148.3 126.26 148.21H126.45C127.6 148.07 128.8 148.02 129.95 148.02H130.05C131.2 148.02 132.4 148.07 133.55 148.21C134.56 148.31 135.56 148.4 136.57 148.64C136.86 148.64 137.19 148.74 137.48 148.78C138.49 148.97 139.54 149.26 140.55 149.55C140.74 149.6 140.89 149.65 141.03 149.69C143.19 150.36 145.25 151.22 147.26 152.27C148.17 152.75 149.08 153.27 149.99 153.85C150.23 153.99 150.47 154.18 150.71 154.33C151.48 154.86 152.2 155.38 152.91 155.96C153.2 156.15 153.49 156.39 153.77 156.63C154.59 157.35 155.4 158.07 156.17 158.83L157.42 160.12L269.35 271.8C283.78 286.25 283.78 309.6 269.35 324.05L269.33 324.04Z" fill="#16A34A"/>
<path fill-rule="evenodd" clip-rule="evenodd" d="M93.0299 184.94C93.0299 184.41 93.0299 183.84 93.0799 183.31C92.9799 184.17 92.9799 184.98 93.0299 185.85V184.94Z" fill="url(#paint4_linear_113_13)"/>
<path fill-rule="evenodd" clip-rule="evenodd" d="M930.34 185.51V838.34C930.34 858.78 913.81 875.31 893.37 875.31C872.93 875.31 856.34 858.78 856.34 838.34V275.43L786.8 344.85L616.88 514.53L541.38 589.91L538.43 592.86C530.25 600.97 519.32 604.52 508.74 603.5C506.46 603.32 504.23 602.9 501.95 602.24C500.87 601.88 499.73 601.52 498.58 601.1C497.44 600.62 496.42 600.14 495.27 599.54C492.08 597.86 489.08 595.69 486.31 592.93L484.81 591.43L373.19 479.99C358.76 465.56 358.76 442.18 373.19 427.76C380.4 420.55 389.9 416.94 399.4 416.94C408.9 416.94 418.33 420.55 425.55 427.76L512.34 514.44L564.57 462.27L734.55 292.65L865.96 161.4C866.38 160.98 866.74 160.56 867.16 160.14C868.96 158.34 870.89 156.77 872.99 155.39C874.01 154.73 875.09 154.13 876.12 153.53C877.02 153.05 877.98 152.63 878.94 152.21C879.12 152.09 879.24 152.09 879.42 152.03C881.64 151.19 883.93 150.47 886.27 149.99C890.96 149.09 895.77 149.09 900.46 149.99C902.74 150.47 905.03 151.19 907.31 152.03C907.43 152.09 907.55 152.09 907.79 152.21C908.75 152.63 909.65 153.05 910.55 153.53C911.57 154.13 912.65 154.73 913.68 155.39C914.58 155.99 915.42 156.59 916.26 157.25C916.38 157.31 916.56 157.43 916.68 157.61H916.74C917.22 157.97 917.7 158.39 918.12 158.87C918.6 159.23 919.02 159.65 919.5 160.13C920.34 160.97 921.12 161.87 921.91 162.71C921.97 162.77 921.97 162.89 922.03 162.89C922.75 163.79 923.41 164.63 924.01 165.53C924.85 166.79 925.57 168.05 926.23 169.38C926.65 170.04 926.95 170.7 927.19 171.36C927.31 171.54 927.37 171.66 927.43 171.84C927.67 172.32 927.85 172.8 927.97 173.34C928.27 173.94 928.45 174.6 928.63 175.26C928.81 175.68 928.93 176.1 929.05 176.52C929.11 176.88 929.23 177.24 929.29 177.6C929.53 178.56 929.77 179.52 929.89 180.61C930.01 181.15 930.07 181.81 930.13 182.41C930.19 182.89 930.25 183.37 930.25 183.85V184.63C930.31 184.93 930.31 185.17 930.31 185.47L930.34 185.51Z" fill="#16A34A"/>
<path fill-rule="evenodd" clip-rule="evenodd" d="M541.36 589.93C540.55 590.98 539.63 591.99 538.68 592.94C530.48 601.12 519.41 604.66 508.72 603.51C519.31 604.51 530.29 600.97 538.44 592.84L541.36 589.92V589.93Z" fill="url(#paint5_linear_113_13)"/>
<path fill-rule="evenodd" clip-rule="evenodd" d="M867.17 160.15C868.9 158.38 870.86 156.8 872.97 155.41C870.91 156.75 868.99 158.33 867.17 160.15Z" fill="url(#paint6_linear_113_13)"/>
<path fill-rule="evenodd" clip-rule="evenodd" d="M879.44 152.02C881.6 151.11 883.9 150.44 886.29 150.01C883.94 150.44 881.64 151.16 879.44 152.02Z" fill="url(#paint7_linear_113_13)"/>
<path fill-rule="evenodd" clip-rule="evenodd" d="M893.35 149.29C895.75 149.29 898.14 149.53 900.44 150.01C895.79 149.1 890.95 149.1 886.3 150.01C888.6 149.53 890.95 149.29 893.35 149.29Z" fill="url(#paint8_linear_113_13)"/>
<path fill-rule="evenodd" clip-rule="evenodd" d="M900.44 150.01C902.79 150.44 905.09 151.11 907.29 152.02C905.04 151.16 902.74 150.44 900.44 150.01Z" fill="url(#paint9_linear_113_13)"/>
<path fill-rule="evenodd" clip-rule="evenodd" d="M919.52 160.11V160.16C917.7 158.34 915.78 156.76 913.72 155.42C915.83 156.76 917.75 158.34 919.52 160.11Z" fill="url(#paint10_linear_113_13)"/>
<path fill-rule="evenodd" clip-rule="evenodd" d="M734.72 457.88C724.75 467.85 721.27 482.65 725.86 495.98C745.32 552.44 743.4 618.82 710.52 685.48C691.77 723.47 660.99 754.42 623 773.24C409.92 878.79 199.48 669.13 304.43 456.35C323.06 418.6 353.72 387.89 391.41 369.01C456.88 336.2 522.29 333.41 578.41 351.49C591.56 355.73 605.98 352.19 615.75 342.42C635.32 322.85 627.21 289.55 600.86 281.09C530.46 258.48 448.88 260.74 366.58 298.21C308.58 324.6 261.57 371.06 234.94 428.82C108.53 703.03 374.63 968.95 649.26 843.2C707.32 816.63 753.97 769.69 780.48 711.68C819.18 627.21 820.48 543.47 795.81 471.8C786.93 446.02 753.99 438.59 734.71 457.87L734.72 457.88Z" fill="#F5F5F5"/>
</g>
<defs>
<linearGradient id="paint0_linear_113_13" x1="115.92" y1="149.67" x2="115.92" y2="152.26" gradientUnits="userSpaceOnUse">
<stop stop-color="#16A34A"/>
<stop offset="1" stop-color="#0284C7"/>
</linearGradient>
<linearGradient id="paint1_linear_113_13" x1="144.13" y1="148" x2="144.13" y2="148" gradientUnits="userSpaceOnUse">
<stop stop-color="#16A34A"/>
<stop offset="1" stop-color="#0284C7"/>
</linearGradient>
<linearGradient id="paint2_linear_113_13" x1="490.05" y1="591.41" x2="490.05" y2="599.55" gradientUnits="userSpaceOnUse">
<stop stop-color="#16A34A"/>
<stop offset="1" stop-color="#0284C7"/>
</linearGradient>
<linearGradient id="paint3_linear_113_13" x1="930.35" y1="184.65" x2="930.35" y2="187.19" gradientUnits="userSpaceOnUse">
<stop stop-color="#16A34A"/>
<stop offset="1" stop-color="#0284C7"/>
</linearGradient>
<linearGradient id="paint4_linear_113_13" x1="93.0399" y1="183.31" x2="93.0399" y2="185.85" gradientUnits="userSpaceOnUse">
<stop stop-color="#16A34A"/>
<stop offset="1" stop-color="#0284C7"/>
</linearGradient>
<linearGradient id="paint5_linear_113_13" x1="525.04" y1="589.93" x2="525.04" y2="603.73" gradientUnits="userSpaceOnUse">
<stop stop-color="#16A34A"/>
<stop offset="1" stop-color="#0284C7"/>
</linearGradient>
<linearGradient id="paint6_linear_113_13" x1="870.07" y1="155.42" x2="870.07" y2="160.15" gradientUnits="userSpaceOnUse">
<stop stop-color="#16A34A"/>
<stop offset="1" stop-color="#0284C7"/>
</linearGradient>
<linearGradient id="paint7_linear_113_13" x1="882.87" y1="150.01" x2="882.87" y2="152.02" gradientUnits="userSpaceOnUse">
<stop stop-color="#16A34A"/>
<stop offset="1" stop-color="#0284C7"/>
</linearGradient>
<linearGradient id="paint8_linear_113_13" x1="893.37" y1="149.29" x2="893.37" y2="150.01" gradientUnits="userSpaceOnUse">
<stop stop-color="#16A34A"/>
<stop offset="1" stop-color="#0284C7"/>
</linearGradient>
<linearGradient id="paint9_linear_113_13" x1="903.87" y1="150.01" x2="903.87" y2="152.02" gradientUnits="userSpaceOnUse">
<stop stop-color="#16A34A"/>
<stop offset="1" stop-color="#0284C7"/>
</linearGradient>
<linearGradient id="paint10_linear_113_13" x1="916.62" y1="155.42" x2="916.62" y2="160.15" gradientUnits="userSpaceOnUse">
<stop stop-color="#16A34A"/>
<stop offset="1" stop-color="#0284C7"/>
</linearGradient>
<clipPath id="clip0_113_13">
<rect width="837.4" height="727.3" fill="white" transform="translate(93 148)"/>
</clipPath>
</defs>
</svg>
